<?xml version="1.0" encoding="utf-8"?>
<!-- Generator: Adobe Illustrator 14.0.0, SVG Export Plug-In . SVG Version: 6.00 Build 43363)  -->
<!DOCTYPE svg PUBLIC "-//W3C//DTD SVG 1.1//EN" "http://www.w3.org/Graphics/SVG/1.1/DTD/svg11.dtd">
<svg version="1.1" id="Capa_1" xmlns="http://www.w3.org/2000/svg" xmlns:xlink="http://www.w3.org/1999/xlink" x="0px" y="0px"
	 width="74.5px" height="76.5px" viewBox="44 44 74.5 76.5" enable-background="new 44 44 74.5 76.5" xml:space="preserve">
<path fill="#FFFFFF" d="M103.213,58.482H60.77c-2.802,0-5.094,2.292-5.094,5.093c0,2.802,2.292,5.094,5.094,5.094h42.443
	c2.802,0,5.093-2.292,5.093-5.094C108.306,60.774,106.015,58.482,103.213,58.482z"/>
<path fill="#FFFFFF" d="M103.213,77.157H60.77c-2.802,0-5.094,2.292-5.094,5.093c0,2.803,2.292,5.094,5.094,5.094h42.443
	c2.802,0,5.093-2.291,5.093-5.094C108.306,79.449,106.015,77.157,103.213,77.157z"/>
<path fill="#FFFFFF" d="M103.213,95.833H60.77c-2.802,0-5.094,2.291-5.094,5.092c0,2.803,2.292,5.094,5.094,5.094h42.443
	c2.802,0,5.093-2.291,5.093-5.094C108.306,98.124,106.015,95.833,103.213,95.833z"/>
</svg>
